<svg xmlns="http://www.w3.org/2000/svg" version="1.1" xmlns:xlink="http://www.w3.org/1999/xlink" width="1000" height="1000"><g clip-path="url(#SvgjsClipPath1655)"><rect width="1000" height="1000" fill="#ffffff"></rect><g transform="matrix(0.7782101167315175,0,0,0.7782101167315175,0,301.55642023346303)"><svg xmlns="http://www.w3.org/2000/svg" version="1.1" xmlns:xlink="http://www.w3.org/1999/xlink" width="1285" height="510"><svg width="1285" height="510" viewBox="0 0 1285 510" fill="none" xmlns="http://www.w3.org/2000/svg">
<g clip-path="url(#clip0_1_2)">
<path d="M598.587 508.734C596.788 508.103 594.41 506.367 593.303 504.875C591.334 502.222 591.292 501.281 591.292 460.531V418.898L593.624 416.417C594.906 415.053 597.498 413.508 599.388 412.983C603.353 411.881 682.341 411.797 691.083 412.885C695.77 413.469 697.21 414.117 699.485 416.661L702.229 419.732V460.778C702.229 499.736 702.116 501.979 700.358 504.886C699.103 506.944 697.293 508.281 694.84 508.963C689.466 510.454 602.911 510.247 598.591 508.732L598.587 508.734ZM358.817 496.657C352.438 493.759 347.834 486.659 347.815 479.681C347.815 475.972 352.687 467.799 356.527 465.086C359.135 463.248 365.885 454.263 378.724 435.551C444.582 339.55 460.781 316.044 463.333 312.79L466.205 309.129L467.777 313.751C469.867 319.883 475.79 328.652 480.783 332.993L484.812 336.502L446.877 386.987C386.329 467.556 385.149 469.11 383.596 470.333C382.466 471.223 382.262 472.549 382.727 475.939C384.333 487.674 376.207 498.511 365.851 498.441C364.116 498.441 360.953 497.627 358.817 496.657ZM915.935 496.918C908.357 492.769 905.477 487.354 906.059 478.371L906.467 472.049L897.238 460.043C892.162 453.439 869.254 423.028 846.335 392.462C814.436 349.923 804.983 336.702 806.03 336.098C809.602 334.045 813.899 330.327 816.643 326.922C820.12 322.602 824.172 314.454 824.236 311.648C824.312 308.338 820.041 302.266 890.298 405.573C903.667 425.23 918.036 446.379 922.232 452.57C926.427 458.761 931.2 464.812 932.837 466.017C942.928 473.443 942.841 488.533 932.686 495.265C927.814 498.489 920.198 499.241 915.958 496.918H915.935ZM548.693 480.453C544.094 471.734 544.475 436.404 549.219 431.659C550.757 430.12 563.713 429.778 578.087 430.896L586.009 431.513V456.824V482.134H567.795C551.426 482.134 549.491 481.964 548.693 480.453ZM707.993 455.741V429.307H726.694H745.399L747.107 434.83C749.348 442.091 749.454 470.609 747.258 477.331L745.845 481.654L726.917 481.914L707.989 482.175L707.993 455.741ZM613.867 400.986V393.769H644.557H675.247L675.84 396.933C676.181 398.673 676.294 401.807 676.143 403.897L675.84 407.696L644.867 407.949L613.89 408.203L613.867 400.986ZM599.456 375.52V362.073H604.26H609.064V375.52V388.967H604.26H599.456V375.52ZM614.824 375.52V362.073H644.603H674.378V374.928C674.378 387.447 674.302 387.797 672.216 388.362C671.025 388.679 657.627 388.947 642.441 388.954H614.824V375.52ZM680.78 388.327C679.983 387.531 679.953 367.186 680.742 364.235C681.23 362.41 681.975 362.073 685.531 362.073H689.741V375.52V388.967H685.576C683.286 388.967 681.128 388.679 680.773 388.327H680.78ZM584.289 356.295C577.248 355.319 572.262 352.575 570.781 348.858C570.203 347.41 569.311 342.768 568.797 338.542C567.576 328.488 563.396 296.233 560.958 278.031C559.045 263.773 557.628 252.303 554.782 228.086C548.546 175.05 547.525 165.303 547.934 162.665C548.973 155.855 572.856 121.262 585.823 107.774C593.182 100.123 600.537 96.6002 615.542 93.5418C647.037 87.1216 683.479 91.4264 699.942 103.511C707.199 108.837 727.643 136.164 737.772 154.073L740.999 159.779L739.907 171.362C737.73 194.45 721.682 323.601 718.481 343.787C717.937 347.2 717.049 350.534 716.497 351.195C715.949 351.856 713.057 353.335 710.068 354.482C704.739 356.526 703.48 356.574 647.483 356.849C616.048 357.004 587.615 356.755 584.289 356.295ZM780.378 335.156C771.122 332.284 761.794 321.931 759.799 312.317C756.14 294.69 766.987 278.936 785.091 275.589C799.004 273.017 814.016 282.546 818.083 296.531C823.73 315.969 810.478 334.618 790.228 335.719C786.467 335.923 782.034 335.67 780.378 335.156ZM492.73 333.912C481.123 329.569 474.097 320.977 471.319 307.728C470.586 304.233 469.512 300.898 468.93 300.316C468.204 299.591 467.872 289.802 467.872 269.195C467.872 250.108 467.532 239.132 466.927 239.132C466.405 239.132 459.598 240.4 451.798 241.948C443.997 243.498 428.538 246.502 417.445 248.625C387.84 254.29 318.195 267.734 306.346 270.07C296.217 272.069 296.096 272.124 295.559 275.061C295.257 276.695 293.912 286.676 292.558 297.241C291.205 307.806 289.898 317.131 289.648 317.962C287.04 326.719 261.778 332.916 238.545 330.499C221.106 328.684 210.588 323.645 208.611 316.16C207.689 312.658 201.82 245.301 201.82 238.206C201.82 235.23 202.216 234.446 203.981 233.974C207.908 232.921 209.398 233.337 212.992 236.49L216.545 239.612L215.86 233.849C212.856 208.598 211.68 191.108 212.988 191.108C213.328 191.108 217.501 192.448 222.274 194.087C239.362 199.954 266.612 198.723 277.089 191.612C280.381 189.377 280.596 189.349 281.5 191.034C282.138 192.229 281.957 198.182 280.952 209.324C280.128 218.409 279.659 226.049 279.912 226.302C280.177 226.555 287.441 225.192 296.085 223.275C344.572 212.511 444.885 189.463 486.153 179.602C512.327 173.35 535.711 167.939 538.118 167.577L542.502 166.92L543.171 172.531C546.943 204.169 552.393 255.763 552.393 259.798C552.393 261.583 550.262 262.73 537.268 267.94C518.877 275.314 515.959 276.734 513.495 279.514L511.575 281.682L515.32 281.094C518.189 280.644 519.697 280.954 521.76 282.425C525.071 284.782 529.996 294.721 530.827 300.728C531.542 305.848 529.905 314.922 527.392 319.812C525.109 324.255 519.326 329.655 513.975 332.348C508.638 335.034 497.851 335.828 492.73 333.912ZM502.447 273.628C502.447 271.427 501.956 270.999 498.849 270.494C496.865 270.172 492.975 270.176 490.205 270.494C485.488 271.047 485.159 271.257 485.159 273.722V276.358L493.803 276.268L502.447 276.177V273.628ZM485.583 263.593C486.898 262.599 489.963 262.183 495.973 262.183C504.363 262.183 504.488 262.145 503.857 260.022C502.825 256.552 500.546 255.459 494.344 255.464C486.751 255.464 482.279 257.953 482.279 262.169C482.279 265.4 482.865 265.652 485.583 263.593ZM1017.27 330.439C1009.26 328.945 1005.25 327.557 1000.79 324.725C995.77 321.544 994.855 319.518 993.336 308.286C990.358 286.28 988.218 274.156 987.202 273.508C986.57 273.106 985.508 272.772 984.839 272.763C983.664 272.725 904.094 255.784 849.665 243.944C784.279 229.72 773.167 227.423 772.581 228.01C772.241 228.354 771.92 238.756 771.874 251.128C771.837 263.5 771.534 273.892 771.19 274.223C770.707 274.704 752.289 268.375 738.531 263.002C735.995 262.011 735.946 261.843 736.434 255.602C737.466 242.442 745.542 170.378 746.204 168.459C746.998 166.145 744.363 165.58 824.69 185.291C848.992 191.254 876.654 197.998 886.16 200.278C895.669 202.557 925.062 209.606 951.474 215.941C1008.17 229.542 1007.2 229.34 1006.45 227.38C1005.25 224.249 1003.46 192.04 1004.44 191.067C1005.09 190.413 1006.79 190.855 1009.66 192.415C1016.77 196.295 1023.21 197.355 1039.36 197.299C1053.14 197.254 1054.78 197.05 1061.45 194.608C1072.59 190.525 1072.97 190.48 1072.97 193.27C1072.97 196.962 1069.15 234.406 1068.49 237.163L1067.9 239.612L1070.2 237.571C1075.06 233.248 1080.63 232.276 1081.88 235.532C1082.46 237.044 1076.24 315.834 1075.36 318.081C1073.8 322.098 1065.86 326.279 1054.73 328.959C1047.53 330.689 1023.67 331.633 1017.27 330.439ZM751.189 297.184C749.881 296.461 746.729 295.161 744.186 294.296C741.566 293.404 739.737 292.244 739.971 291.619C740.198 291.013 741.566 286.412 743.003 281.393C744.443 276.375 745.765 272.119 745.947 271.937C746.136 271.756 750.358 273.001 755.354 274.707L764.436 277.808L760.687 282.722C758.627 285.425 756.182 290.08 755.252 293.068C753.585 298.428 753.532 298.482 751.189 297.184ZM534.101 293.237C532.865 289.92 529.822 283.917 527.252 279.712C525.706 277.179 525.612 276.59 526.764 276.59C527.543 276.59 531.338 275.307 535.197 273.737C539.052 272.168 542.298 270.979 542.412 271.096C542.525 271.213 543.799 275.414 545.235 280.433C546.675 285.451 548.032 290.034 548.251 290.617C548.478 291.216 546.225 292.397 543.077 293.328C540.015 294.237 536.969 295.199 536.312 295.468C535.627 295.748 534.683 294.798 534.101 293.237ZM801.638 272.255C797.394 270.342 789.873 269.684 783.871 270.7C780.964 271.192 778.451 271.466 778.284 271.309C778.133 271.151 778.284 269.467 778.625 267.564L779.275 264.104H792.008H804.741L805.338 267.706C806.438 274.388 806.419 274.413 801.631 272.255H801.638ZM147.073 215.443C145.75 215.235 140.346 214.391 135.066 213.565C88.0784 206.222 15.829 192.046 5.29167 188.104C-3.67714 184.747 -2.05573 183.926 16.4451 182.465C61.0586 178.94 82.9874 175.246 113.639 166.089C155.244 153.66 165.464 153.479 197.348 164.608C205.353 167.401 213.903 169.953 216.348 170.278L220.793 170.869L221.397 167.071C224.077 150.336 235.612 139.255 249.086 140.477C259.219 141.395 268.328 149.245 271.053 159.412C271.695 161.789 272.489 164.05 272.826 164.435C273.793 165.555 280.271 163.384 283.189 160.961C285.827 158.77 286.337 158.729 324.28 157.631C414.135 155.031 447.58 153.562 470.272 151.214L482.759 149.922L460.668 150.348C448.517 150.582 429.714 151.031 418.889 151.346L399.198 151.917L389.454 147.099L379.711 142.281L379.076 147.357L378.441 152.433L370.568 153.014C366.24 153.332 349.251 153.885 332.814 154.239L302.929 154.882L302.325 150.663C300.847 140.253 297.808 100.112 298.061 94.2977L298.364 87.8559L301.391 87.5611C303.659 87.3419 305.258 88.0052 307.764 90.2023C309.6 91.8165 311.309 93.1374 311.558 93.1374C311.785 93.1374 311.672 90.9706 311.256 88.3223C310.152 81.3472 307.994 49.0995 308.591 48.5035C308.856 48.2276 311.694 49.053 314.869 50.3426C323.433 53.8235 332.202 55.0356 344.871 54.4903C355.302 54.0409 362.143 52.489 371.131 48.5299C373.656 47.4169 373.489 55.1328 370.334 84.9226L369.623 91.5954L372.31 89.4849C377.375 85.5017 380.497 87.2429 380.497 94.0498V98.4205L411.95 109.825C485.25 136.403 541.92 158.162 542.521 159.96C542.673 160.476 532.131 163.406 519.054 166.47C505.973 169.534 488.209 173.776 479.573 175.895L463.877 179.749L443.074 171.118C431.634 166.37 420.718 161.948 418.821 161.289C414.724 159.87 406.175 160.893 346.398 169.959C290.223 178.478 288.046 178.761 286.946 177.663C286.417 177.133 283.064 176.699 279.496 176.699H273.011L272.497 179.821C272.232 181.538 271.873 184.198 271.737 185.734C271.51 188.033 270.815 188.754 267.704 189.826C257.919 193.197 238.878 193.557 228.144 190.573C222.354 188.962 220.868 187.446 220.146 182.404L219.614 178.67L192.722 196.424C177.929 206.188 164.315 214.603 162.467 215.122C159.186 216.046 151.918 216.197 147.1 215.44L147.073 215.443ZM1117.16 212.445C1111.34 208.89 1086.19 192.391 1074.89 184.72L1065.77 178.523L1065.47 182.174C1065.06 187.024 1063.14 188.924 1056.79 190.768C1050.33 192.646 1029.9 192.906 1021.95 191.211C1015.24 189.78 1013.64 188.082 1013.26 181.976L1012.96 177.181L1008.4 176.302C1004.63 175.573 1003.28 175.735 1000.46 177.252C997.074 179.077 997.017 179.074 974.756 175.868C962.483 174.1 937.966 170.277 920.27 167.372C900.488 164.125 884.765 162.037 879.451 161.951L870.803 161.811L848.232 170.75C832.177 177.109 824.829 179.571 822.781 179.28C816.949 178.453 746.873 161.135 746.011 160.309C745.478 159.797 746.442 158.906 748.411 158.087C753.162 156.113 886.439 108.567 902.982 102.945L916.906 98.2111L917.386 93.6106C918.044 87.3034 920.009 86.1699 925.161 89.1236L929.054 91.3527L928.487 87.2024C926.661 73.7908 925.289 47.9944 926.397 47.9944C926.586 47.9944 929.084 49.05 931.919 50.3396C939.689 53.8727 948.605 55.0523 962.948 54.4468C975.357 53.9233 982.209 52.4323 987.292 49.149C988.498 48.3708 989.749 47.9974 990.07 48.3194C990.633 48.8829 987.973 82.5687 986.843 89.1515L986.295 92.3694L990.233 89.7612C993.071 87.8839 994.855 87.3238 996.601 87.7622C998.809 88.3163 999.032 88.8254 999.035 93.3956C999.035 97.8498 995.974 137.648 994.651 150.286L994.148 155.088L971.377 154.854C958.851 154.725 942.482 154.357 935.006 154.038C919.888 153.392 920.312 153.62 920.285 146.092C920.247 142.293 920.954 142.191 907.302 148.018C897.744 152.098 897.642 152.118 885.691 152.162C879.088 152.2 861.797 151.826 847.272 151.361C832.744 150.897 821.091 150.768 821.371 151.074C823.178 153.037 888.507 156.061 971.845 158.039C989.571 158.46 1000.57 159.1 1001.73 159.778C1008.6 163.787 1011.83 165.224 1012.41 164.531C1012.79 164.092 1013.85 161.184 1014.79 158.069C1017.08 150.514 1023.25 143.804 1029.98 141.569C1039.27 138.484 1050.45 141.728 1056.11 149.147C1059.38 153.442 1063.07 161.9 1063.88 166.975L1064.55 171.179L1069.01 170.65C1071.46 170.359 1078.65 168.196 1084.99 165.842C1103.78 158.865 1110.56 157.266 1123.41 156.785C1137.34 156.263 1145.83 157.808 1171.43 165.527C1192.17 171.777 1206.24 174.993 1224.26 177.6C1235.98 179.296 1243.93 180.132 1275.72 183.012C1282.86 183.658 1285.34 184.682 1283.71 186.31C1281.18 188.837 1247.61 195.924 1186.32 206.867C1148.03 213.705 1138.17 215.122 1129.05 215.102C1122.5 215.064 1120.91 214.732 1117.17 212.444L1117.16 212.445ZM250.322 68.4662C246.24 67.9386 189.181 57.495 156.556 51.3045C141.438 48.4355 126.093 45.1824 122.461 44.0754C109.546 40.1409 111.028 38.0145 127.382 37.0149C151.287 35.5529 180.008 31.942 194.136 28.6201C196.513 28.0612 206.155 25.4635 215.566 22.848C254.714 11.9672 263.067 11.8133 292.849 21.4247C300.099 23.7646 308.247 25.9189 310.953 26.2122L315.871 26.7459L316.483 22.2894C318.301 9.018 328.052 0.0140327 340.608 0.0140327C351.795 0.0140327 360.42 6.9918 363.78 18.7612L365.583 25.0651L368.943 24.4498C370.791 24.1097 372.715 23.4358 373.217 22.9486C373.762 22.4198 407.456 22.1095 456.779 22.1787C507.64 22.2505 537.396 22.6171 534.146 23.1326C527.687 24.1569 397.516 37.3713 386.506 38.1207C379.805 38.5766 377.896 38.3513 373.841 36.6033C367.624 33.9289 366.059 33.9742 366.059 36.83C366.059 43.451 365.088 44.9768 359.464 47.1833C354.834 48.9978 352.112 49.3134 340.608 49.3663C321.589 49.4533 315.156 46.8802 315.156 39.1835C315.156 37.1626 314.929 35.5091 314.65 35.5091C314.385 35.5091 306.917 40.1961 298.08 45.9243C267.988 65.4354 260.648 69.3752 255.126 68.9768C254.068 68.9012 251.906 68.671 250.322 68.4662ZM1036.48 68.2205C1034.31 67.5534 1010.86 53.3942 992.293 41.5465C988.332 39.0176 984.768 36.8047 984.371 36.6286C983.974 36.4509 983.649 37.8573 983.649 39.7501C983.649 47.2302 977.609 49.4416 957.238 49.4185C944.576 49.3807 942.289 49.1539 938.347 47.3469C933.963 45.3359 933.85 45.176 933.192 39.9194C932.814 36.965 932.085 34.5472 931.552 34.5472C931.019 34.5472 928.056 35.6814 924.968 37.067L919.355 39.5868L885.468 36.0254C832.01 30.4067 807.995 27.9754 785.791 25.9333C774.433 24.8886 762.762 23.6984 759.859 23.288C756.953 22.8772 792.393 22.3253 838.617 22.0612C898.727 21.7172 923.207 21.8797 924.579 22.6368C925.637 23.2173 928.101 23.9891 930.051 24.3515C933.57 25.0043 933.612 24.9744 934.22 21.3748C935.165 15.7716 935.449 15.0354 938.465 10.2766C942.528 3.87218 949.629 -0.0158256 957.238 4.84221e-05C964.441 0.0378437 969.551 2.2534 974.234 7.44647C978.728 12.4347 980.24 15.4152 981.767 22.2887L982.991 27.7989L986.922 27.2391C989.084 26.9292 996.59 24.7665 1003.6 22.4289C1035.68 11.7377 1044.86 11.751 1085.46 22.5498C1117.01 30.9419 1131.75 33.5135 1159.42 35.46C1185.65 37.3051 1188.21 37.5742 1188.82 38.555C1189.16 39.0845 1189.01 39.9277 1188.51 40.4281C1187.06 41.8776 1163.67 47.4407 1140.7 51.7977C1042.05 70.5136 1043.3 70.3163 1036.49 68.2213L1036.48 68.2205Z" fill="#E6D296"></path>
</g>
<defs>
<clipPath id="clip0_1_2">
<rect width="1284.19" height="509.98" fill="white"></rect>
</clipPath>
<clipPath id="SvgjsClipPath1655"><rect width="1000" height="1000" x="0" y="0" rx="500" ry="500"></rect></clipPath></defs>
</svg></svg></g></g></svg>